<svg width="67" height="20" viewBox="0 0 67 20" fill="none" xmlns="http://www.w3.org/2000/svg">
<path d="M8.62646 0.431463C8.62646 0.477353 8.78249 0.872006 8.98441 1.3309C9.30563 2.06514 9.70029 2.99212 10.4345 4.72676C10.563 5.02963 10.7374 5.44264 10.8292 5.64455C10.9118 5.84647 11.0862 6.2503 11.2055 6.53482C11.3388 6.85702 11.6531 7.06714 12.0018 7.06714H12.573H13.1441C13.4928 7.06714 13.8072 6.85702 13.9405 6.53482C14.0598 6.2503 14.2159 5.88318 14.2801 5.73633C14.3352 5.58031 14.5187 5.1673 14.6656 4.81853C14.8216 4.46059 15.1153 3.76307 15.3264 3.25828C15.7669 2.21199 15.7578 2.22117 16.1983 1.2483C16.3727 0.85365 16.5195 0.495709 16.5195 0.449819C16.5195 0.4042 16.4825 0.367218 16.4369 0.367218H15.3906H15.0144C14.5541 0.367218 14.14 0.64692 13.968 1.07392C13.812 1.46857 13.5367 2.13857 13.3531 2.56993C13.1696 3.0013 12.9493 3.52444 12.8667 3.73553C12.7841 3.95581 12.6923 4.13019 12.6648 4.13019C12.6372 4.13019 12.5179 3.89156 12.4078 3.59786C12.2885 3.31335 12.0957 2.84527 11.9764 2.56993C11.7103 1.93665 11.3523 1.05557 11.1963 0.660913C11.1301 0.484253 10.9612 0.367218 10.7725 0.367218H9.85631C9.17714 0.367218 8.62646 0.394751 8.62646 0.431463Z" fill="#00A9A5"/>
<path d="M19.0545 1.03706C18.8892 1.43171 18.6598 1.95485 18.5497 2.21184C18.3569 2.63402 17.4024 4.81838 16.8793 6.0207C16.76 6.29604 16.6223 6.59891 16.5764 6.68151C16.5213 6.77329 16.4846 6.88343 16.4846 6.93849C16.4846 6.98918 16.5257 7.03027 16.5764 7.03027H17.6319H18.3315C18.608 7.03027 18.8571 6.8636 18.9627 6.60809C19.0636 6.37864 19.1462 6.13083 19.1462 6.05741C19.1462 5.98644 19.2038 5.92892 19.2747 5.92892H20.4679H21.1938C21.5461 5.92892 21.8609 6.14882 21.9822 6.47959C22.1035 6.81037 22.4184 7.03027 22.7707 7.03027H23.3865H24.4518C24.5134 7.03027 24.5558 6.96847 24.5337 6.91096C24.4603 6.71822 23.9096 5.44248 23.7352 5.05701C23.6434 4.85509 23.2855 4.04743 22.9551 3.2673C22.6155 2.48718 22.2392 1.63362 22.1291 1.38582C22.0189 1.12884 21.8629 0.789251 21.7987 0.624047C21.7206 0.445635 21.5443 0.330352 21.3496 0.330352H20.5138H20.139C19.6695 0.330352 19.2441 0.607492 19.0545 1.03706ZM20.7891 3.36826C20.8198 3.44967 20.8492 3.52893 20.8762 3.60388C21.0073 3.96685 20.8438 4.19082 20.4587 4.16675C20.1866 4.15314 20.0066 3.87833 20.103 3.62347L20.1925 3.38662C20.3485 2.96443 20.4862 2.62485 20.4954 2.62485C20.5046 2.62485 20.6331 2.96443 20.7891 3.36826Z" fill="#00A9A5"/>
<path d="M25.7728 3.67113V5.88303C25.7728 6.51663 26.2864 7.03027 26.92 7.03027H27.2321C27.6933 7.03027 28.0673 6.65634 28.0673 6.19508V5.67318C28.0673 5.50987 28.2075 5.38181 28.3701 5.39659C28.5561 5.41403 28.7246 5.51367 28.8294 5.66827L29.2053 6.22261C29.5499 6.72794 30.1219 7.03027 30.7335 7.03027H30.9767C31.6467 7.03027 32.1973 7.00274 32.1973 6.97521C32.1973 6.94767 32.0964 6.79165 31.9771 6.63562C31.8578 6.47042 31.5457 6.03905 31.2887 5.66276L30.9896 5.21408C30.9028 5.08382 30.943 4.90737 31.0776 4.82756C31.4815 4.57975 31.8119 4.12086 31.9679 3.61607C32.1423 3.0195 32.1423 2.68909 31.9587 2.08335L31.9544 2.0682C31.8666 1.76407 31.7112 1.48372 31.4998 1.24815C31.3163 1.04623 30.94 0.770895 30.6554 0.633225C30.311 0.464031 29.9332 0.373722 29.5495 0.368865L27.9571 0.348708C26.7552 0.333558 25.7728 1.3037 25.7728 2.50571V3.67113ZM29.1686 2.12924C29.3563 2.17028 29.519 2.28605 29.6194 2.44981L29.6367 2.478L29.6888 2.56301C29.7674 2.69126 29.7947 2.84446 29.7652 2.99196C29.7377 3.12046 29.6092 3.31319 29.4807 3.42333C29.3331 3.55908 29.1399 3.63442 28.9394 3.63442H28.6546C28.3302 3.63442 28.0673 3.37144 28.0673 3.04703V2.8543V2.478C28.0673 2.25497 28.2481 2.07417 28.4711 2.07417C28.6914 2.07417 29.0034 2.1017 29.1686 2.12924Z" fill="#00A9A5"/>
<path d="M35.2445 0.211039C34.914 0.330352 34.4735 0.559802 34.2624 0.734183C34.0163 0.932254 33.82 1.18819 33.6934 1.4776L33.6561 1.56458C33.5535 1.80391 33.5006 2.06158 33.5006 2.32197C33.5098 2.84512 33.776 3.42333 34.1523 3.69867C34.5469 3.99236 35.2812 4.2677 36.1806 4.46044C36.5753 4.54304 36.9883 4.68989 37.0984 4.78167L37.1494 4.82379C37.2352 4.89471 37.2414 5.02415 37.1627 5.1029C37.08 5.1855 36.8506 5.27728 36.6395 5.30481C36.3965 5.33519 36.1501 5.32439 35.9107 5.27287L35.5473 5.19468C35.1527 5.11208 34.6938 4.95605 34.5194 4.86427C34.345 4.76331 34.1798 4.71742 34.1339 4.75414C34.0972 4.79085 33.9136 5.17632 33.7301 5.59851L33.4502 6.23403C33.4163 6.311 33.446 6.40115 33.519 6.44288C33.5832 6.48877 33.9687 6.63562 34.3725 6.77329C34.8588 6.93739 35.3685 7.0211 35.8817 7.0211H36.2999L36.8281 7.02516C37.2654 7.02852 37.6973 6.9297 38.0896 6.73658C38.42 6.58055 38.7504 6.38782 38.833 6.32357C38.9065 6.25932 39.0808 6.03905 39.2185 5.83714C39.38 5.59786 39.4663 5.31577 39.4663 5.02709V4.77249V4.6215C39.4663 4.26901 39.3392 3.92833 39.1084 3.66196C38.8671 3.39055 38.5645 3.18073 38.2257 3.04997L38.2181 3.04703C37.9336 2.9369 37.3829 2.79005 36.9974 2.70745C36.6212 2.62485 36.1898 2.50553 36.0429 2.43211L35.9256 2.36926C35.8423 2.32462 35.7971 2.2315 35.8135 2.13841C35.8318 2.05581 35.942 1.9365 36.0705 1.86307C36.2203 1.78517 36.3893 1.75189 36.5575 1.76717L36.8047 1.78965C37.08 1.81718 37.5389 1.91814 37.8143 2.00992C38.0896 2.11088 38.3741 2.20266 38.4384 2.22101C38.5004 2.24169 38.5678 2.21082 38.5927 2.15038L38.8698 1.4776C39.0533 1.04623 39.1726 0.651581 39.1543 0.596513C39.1359 0.541446 38.833 0.403776 38.4843 0.284462C38.0704 0.144475 37.6384 0.0653043 37.2018 0.049427L36.8506 0.0366569L36.4734 0.0229411C36.0556 0.00774717 35.6386 0.0715632 35.2445 0.211039Z" fill="#00A9A5"/>
<path d="M40.6594 3.68031V5.88303C40.6594 6.51663 41.1731 7.03027 41.8067 7.03027C42.4403 7.03027 42.9539 6.51663 42.9539 5.88303V3.68031V1.4776C42.9539 0.843992 42.4403 0.330352 41.8067 0.330352C41.1731 0.330352 40.6594 0.843992 40.6594 1.4776V3.68031Z" fill="#00A9A5"/>
<path d="M44.7877 1.23912C44.7877 1.72067 45.178 2.11103 45.6596 2.11103H45.7513C46.2836 2.11103 46.715 2.54249 46.715 3.07472V4.58909V5.874C46.715 6.53295 47.2492 7.06714 47.9082 7.06714C48.5671 7.06714 49.1013 6.53295 49.1013 5.874V4.58909V3.07472C49.1013 2.54249 49.5328 2.11103 50.065 2.11103H50.1568C50.6383 2.11103 51.0287 1.72067 51.0287 1.23912C51.0287 0.757584 50.6383 0.367218 50.1568 0.367218H47.9082H45.6596C45.178 0.367218 44.7877 0.757584 44.7877 1.23912Z" fill="#00A9A5"/>
<path d="M51.7556 0.624047C52.0217 1.07377 53.068 2.83594 53.169 2.99196C53.2149 3.06539 53.4351 3.44169 53.6646 3.81798C53.9347 4.26221 54.0776 4.77213 54.0776 5.29204V5.76371V5.88303C54.0776 6.51663 54.5912 7.03027 55.2248 7.03027C55.8584 7.03027 56.3721 6.51663 56.3721 5.88303V5.82796V5.01479C56.3721 4.76825 56.4527 4.52847 56.6015 4.33195C56.73 4.16675 56.831 3.99236 56.831 3.9373C56.831 3.88223 56.9044 3.74456 56.9962 3.62524C57.088 3.50593 57.2623 3.22141 57.3908 2.99196C57.5101 2.76252 57.7029 2.45046 57.813 2.29444C57.9323 2.13841 58.0241 1.99157 58.0241 1.96403C58.0241 1.9365 58.2352 1.56938 58.4922 1.14719C58.6976 0.802165 58.4556 0.363644 58.0542 0.353439L57.8681 0.348708L57.0201 0.327148C56.872 0.323385 56.7308 0.389092 56.6382 0.504734C56.5556 0.605691 56.2528 1.1013 55.9591 1.60609C55.6746 2.12006 55.3992 2.53307 55.3533 2.53307C55.3074 2.53307 55.2248 2.44129 55.1789 2.32197C55.1331 2.21184 54.9862 1.95485 54.8577 1.75294C54.7384 1.55102 54.5457 1.22062 54.4355 1.0187C54.3254 0.816785 54.1785 0.578157 54.0959 0.486378C54.0084 0.387177 53.8825 0.330352 53.7502 0.330352H52.7651H51.9227C51.772 0.330352 51.6786 0.494442 51.7556 0.624047Z" fill="#00A9A5"/>
<path d="M57.8157 9.02193C53.5847 9.04947 37.1011 9.21467 28.2627 9.32481C24.1509 9.37987 16.6709 9.46247 11.6505 9.50836L2.51844 9.60014L1.37119 9.7011L0.223948 9.80206L0.104634 9.94891C-0.0422136 10.1416 -0.0330356 10.6281 0.12299 10.8483L0.251482 11.0227L4.23472 11.0594C7.87838 11.087 14.7068 11.0319 34.9167 10.7933C39.0101 10.7382 47.5731 10.6648 53.961 10.6097L65.5711 10.5179L65.8281 10.4078C66.0851 10.3068 66.3513 9.92137 66.3513 9.64603C66.3513 9.56343 66.2319 9.37069 66.0851 9.22385L65.8189 8.95769L63.3042 8.97604C61.9275 8.9944 59.4586 9.01275 57.8157 9.02193Z" fill="#00A9A5"/>
<path d="M16.4727 13.1651C16.4727 13.2294 16.7939 14.0003 17.3905 15.3954C17.8126 16.3866 18.4459 17.8734 18.7672 18.6536C18.857 18.8732 18.9496 19.0819 19.0227 19.2341C19.1006 19.3961 19.226 19.5476 19.226 19.7274C19.226 19.8186 19.3 19.8926 19.3913 19.8926H20.4192H21.4471C21.5384 19.8926 21.6123 19.8186 21.6123 19.7274C21.6123 19.6356 21.649 19.5255 21.6857 19.4704C21.7225 19.4245 21.8968 19.0574 22.062 18.6536C22.2364 18.2497 22.5668 17.4604 22.8055 16.9097C23.0441 16.3499 23.3745 15.5698 23.5397 15.1659C23.7049 14.7621 23.9619 14.1655 24.0996 13.8443C24.2464 13.5231 24.3657 13.2294 24.3657 13.1835C24.3657 13.1379 24.3287 13.1009 24.2831 13.1009H23.2276H22.2897C22.1661 13.1009 22.0578 13.1836 22.0253 13.3028C21.9886 13.4221 21.6766 14.1931 21.3278 15.0283C20.9699 15.8634 20.6486 16.6436 20.5936 16.7721C20.5594 16.8541 20.4433 16.8544 20.4087 16.7726L20.2723 16.4508C20.153 16.148 19.7951 15.2669 19.483 14.4959L19.3812 14.2422C19.1045 13.5528 18.4363 13.1009 17.6933 13.1009C17.0233 13.1009 16.4727 13.1284 16.4727 13.1651Z" fill="#00A9A5"/>
<path d="M25.5588 16.4967V18.7453C25.5588 19.3789 26.0725 19.8926 26.7061 19.8926C27.3397 19.8926 27.8533 19.3789 27.8533 18.7453V16.4967V14.2481C27.8533 13.6145 27.3397 13.1009 26.7061 13.1009C26.0725 13.1009 25.5588 13.6145 25.5588 14.2481V16.4967Z" fill="#00A9A5"/>
<path d="M29.0465 16.4967V18.7453C29.0465 19.3789 29.5601 19.8926 30.1938 19.8926C30.8296 19.8926 31.3473 19.3813 31.3552 18.7454L31.3594 18.4057L31.367 17.9961C31.3739 17.6256 31.8364 17.4615 32.0752 17.7449C32.4515 18.1947 32.8554 18.6627 32.9655 18.782C33.0848 18.9014 33.3234 19.1951 33.5162 19.4429C33.73 19.7261 34.0644 19.8926 34.4193 19.8926H34.8011C35.3232 19.8926 35.7464 19.4693 35.7464 18.9472V16.4967V14.2022C35.7464 13.594 35.2533 13.1009 34.6451 13.1009C34.0347 13.1009 33.5378 13.5918 33.5304 14.2022L33.5254 14.6244L33.5079 15.5826C33.5046 15.7671 33.2709 15.8443 33.1582 15.6982C32.9655 15.4596 32.6902 15.1109 32.5341 14.9365C32.3781 14.7621 32.1578 14.5051 32.0477 14.3766C31.9376 14.2481 31.6439 13.9085 31.3961 13.624C31.1167 13.2923 30.7052 13.1009 30.2716 13.1009H30.001C29.4739 13.1009 29.0465 13.5282 29.0465 14.0554V16.4967Z" fill="#00A9A5"/>
<path d="M36.9395 16.4967V17.0474C36.9395 18.6188 38.2133 19.8926 39.7847 19.8926H41.758C42.2395 19.8926 42.6299 19.5022 42.6299 19.0207C42.6299 18.5391 42.2395 18.1488 41.758 18.1488H40.9319H39.6929C39.4395 18.1488 39.234 17.9433 39.234 17.6899C39.234 17.4364 39.4395 17.231 39.6929 17.231H40.6566H41.2532C41.7094 17.231 42.0792 16.8611 42.0792 16.4049C42.0792 15.9488 41.7094 15.5789 41.2532 15.5789H40.6566H39.6011C39.3984 15.5789 39.234 15.4146 39.234 15.2118C39.234 15.0091 39.3984 14.8447 39.6011 14.8447H40.8402H41.5744C42.0559 14.8447 42.4463 14.4543 42.4463 13.9728C42.4463 13.4912 42.0559 13.1009 41.5744 13.1009H39.6929C38.1722 13.1009 36.9395 14.3336 36.9395 15.8543V16.4967Z" fill="#00A9A5"/>
<path d="M46.3469 13.0431C46.2001 13.0615 45.8146 13.1624 45.5117 13.2634L45.4144 13.2953C45.1101 13.3951 44.8326 13.5631 44.6031 13.7865C44.4104 13.9701 44.1809 14.2913 44.0892 14.4932C43.9743 14.7349 43.9148 14.9992 43.9148 15.2668V15.2917V15.3372C43.9148 15.5913 43.9712 15.8422 44.08 16.0718C44.4104 16.7785 44.8142 17.0172 46.3102 17.3843L47.2574 17.6134C47.3809 17.6433 47.4904 17.7147 47.5676 17.8156C47.6341 17.9077 47.6156 18.036 47.5257 18.1054L47.485 18.1369C47.3606 18.2435 47.2022 18.3021 47.0384 18.3021H46.7416C46.3769 18.3021 46.0145 18.2433 45.6685 18.1279L45.3649 18.0267C44.9152 17.8707 44.5297 17.7514 44.5113 17.7514C44.493 17.7514 44.4104 17.9441 44.3186 18.1828C44.2268 18.4306 44.08 18.761 43.9882 18.9262C43.8964 19.0914 43.823 19.2658 43.823 19.3117C43.823 19.4034 44.3553 19.6604 44.9702 19.8715C45.2132 19.9566 45.4689 20 45.7263 20H46.6682H47.5349C47.8407 20 48.143 19.9343 48.4212 19.8073C48.9902 19.5411 49.5042 19.0638 49.7061 18.6233C49.8209 18.3816 49.8805 18.1174 49.8805 17.8498V17.7514V17.6701C49.8805 17.3926 49.8077 17.12 49.6694 16.8795C49.5369 16.6446 49.3475 16.4469 49.1185 16.3044L49.0544 16.2646C48.781 16.0944 48.4814 15.9702 48.1677 15.897L47.8154 15.8148C47.3657 15.7047 46.815 15.5579 46.6039 15.4844L46.3739 15.4042C46.2753 15.3698 46.2093 15.2768 46.2093 15.1724C46.2093 15.0672 46.2737 14.9727 46.3716 14.9342L46.4663 14.897C46.6293 14.8306 46.8054 14.8024 46.981 14.8146L47.3749 14.842L47.5468 14.8541C47.8643 14.8764 48.1755 14.9531 48.4671 15.0806L48.7908 15.2222C48.8574 15.2514 48.9352 15.226 48.9718 15.1632C49.0177 15.099 49.1829 14.7227 49.339 14.3188L49.5699 13.7378C49.6013 13.6589 49.574 13.5687 49.5042 13.5203C49.3114 13.401 48.4395 13.1624 47.8705 13.0615C47.3565 12.9788 46.8701 12.9697 46.3469 13.0431Z" fill="#00A9A5"/>
</svg>
